<svg width="43" height="49" viewBox="0 0 43 49" fill="none" xmlns="http://www.w3.org/2000/svg">
<path d="M3.88341 43.5734L0 0H42.6864L38.7978 43.5665L21.3173 48.413L3.88341 43.5734Z" fill="#1572B6"/>
<path d="M21.3432 44.7096L35.4694 40.7933L38.7926 3.56372H21.3432V44.7096Z" fill="#33A9DC"/>
<path d="M21.3432 19.3498H28.415L28.9025 13.8774H21.3432V8.53296H21.3622H34.7432L34.6153 9.96633L33.3029 24.6943H21.3432V19.3498Z" fill="white"/>
<path d="M21.3761 33.2284L21.3519 33.2353L15.4005 31.6273L15.0201 27.3652H12.1275H9.65493L10.4036 35.7562L21.3501 38.7959L21.3761 38.789V33.2284Z" fill="#EBEBEB"/>
<path d="M27.9602 24.4673L27.317 31.6238L21.3571 33.2318V38.7923L32.3122 35.7562L32.3935 34.8536L33.322 24.4673H27.9602Z" fill="white"/>
<path d="M21.3622 8.53296V11.8527V13.8636V13.8774H8.47055H8.45326L8.34605 12.6757L8.10226 9.96633L7.97431 8.53296H21.3622Z" fill="#EBEBEB"/>
<path d="M21.3432 19.3499V22.6696V24.6805V24.6943H15.4835H15.4662L15.359 23.4926L15.117 20.7832L14.989 19.3499H21.3432Z" fill="#EBEBEB"/>
</svg>
