<svg width="43" height="49" viewBox="0 0 43 49" fill="none" xmlns="http://www.w3.org/2000/svg">
<path d="M3.88483 43.5699L0 0H42.6864L38.7964 43.563L21.3173 48.4091L3.88483 43.5699Z" fill="#E44F26"/>
<path d="M21.3432 44.7058L35.4683 40.7898L38.7912 3.56323H21.3432V44.7058Z" fill="#F1662A"/>
<path d="M21.3432 19.7212H14.272L13.7845 14.2493H21.3432V8.90527H21.3242H7.94427L8.07221 10.3403L9.38445 25.0653H21.3432V19.7212Z" fill="#EBEBEB"/>
<path d="M21.3432 33.5992L21.319 33.6062L15.3681 32L14.9878 27.7383H12.0953H9.62302L10.3716 36.1269L21.319 39.1663L21.3432 39.1594V33.5992Z" fill="#EBEBEB"/>
<path d="M21.3242 19.7214V25.0655H27.9044L27.2854 31.9966L21.3242 33.6045V39.1646L32.2802 36.1269L32.3597 35.2244L33.6149 21.1564L33.7463 19.7214H32.3061H21.3242Z" fill="white"/>
<path d="M21.3242 8.90527V12.2248V14.2372V14.2493H34.2148H34.2321L34.3393 13.0494L34.5831 10.3403L34.711 8.90527H21.3242Z" fill="white"/>
</svg>
