<svg width="43" height="43" viewBox="0 0 43 43" fill="none" xmlns="http://www.w3.org/2000/svg">
<path d="M0 0H42.6864V42.6864H0V0Z" fill="#F7DF1E"/>
<path d="M11.2238 35.6719L14.4905 33.6949C15.1207 34.8123 15.694 35.7577 17.0691 35.7577C18.3872 35.7577 19.2182 35.2421 19.2182 33.2365V19.5972H23.2297V33.2932C23.2297 37.448 20.7943 39.3392 17.2411 39.3392C14.032 39.3392 12.1693 37.6772 11.2238 35.6715" fill="black"/>
<path d="M25.4086 35.2421L28.6748 33.351C29.5347 34.7552 30.6522 35.7866 32.6292 35.7866C34.2913 35.7866 35.3512 34.9556 35.3512 33.8094C35.3512 32.434 34.2624 31.9469 32.4285 31.1448L31.4259 30.7147C28.5317 29.4828 26.6119 27.9356 26.6119 24.669C26.6119 21.6603 28.9041 19.3679 32.486 19.3679C35.0362 19.3679 36.87 20.2563 38.188 22.5773L35.0647 24.5829C34.3769 23.3509 33.6322 22.8639 32.4861 22.8639C31.3112 22.8639 30.5662 23.6088 30.5662 24.5829C30.5662 25.7864 31.3112 26.2736 33.0303 27.0187L34.0331 27.4485C37.4429 28.9099 39.3628 30.3997 39.3628 33.7521C39.3628 37.3627 36.5261 39.3396 32.7152 39.3396C28.9902 39.3396 26.5832 37.5632 25.4086 35.2421Z" fill="black"/>
</svg>
