<svg width="43" height="23" viewBox="0 0 43 23" fill="none" xmlns="http://www.w3.org/2000/svg">
<path d="M0.000344223 20.1933H1.41452V14.6086L3.60393 19.4773C3.86212 20.0666 4.21566 20.2749 4.90932 20.2749C5.60298 20.2749 5.9431 20.0666 6.20129 19.4773L8.3907 14.6086V20.1933H9.80488V14.6179C9.80488 14.074 9.58731 13.8106 9.13841 13.675C8.06401 13.3397 7.34316 13.6299 7.01681 14.3552L4.86836 19.1602L2.78807 14.3549C2.47514 13.6299 1.74086 13.3397 0.666464 13.6746C0.217565 13.8106 0 14.0736 0 14.6175L0.000344223 20.1933ZM10.9812 15.6472H12.395V18.7241C12.3819 18.891 12.4487 19.2835 13.2233 19.2959C13.6185 19.3021 16.274 19.2959 16.2988 19.2959V15.632H17.716C17.7226 15.632 17.7147 20.6284 17.7147 20.6491C17.7222 21.8815 16.1859 22.149 15.4774 22.1696H11.0118V21.2181C11.0194 21.2181 15.4743 21.2192 15.4853 21.2178C16.3959 21.1218 16.2881 20.6694 16.2878 20.5173V20.1462H13.2821C11.8838 20.1334 10.9929 19.5231 10.9815 18.8208C10.9808 18.7564 11.0122 15.6782 10.9812 15.6472Z" fill="#00618A"/>
<path d="M18.8063 20.1931H22.8725C23.3486 20.1931 23.8113 20.0936 24.1783 19.9214C24.79 19.6405 25.0892 19.2598 25.0892 18.7606V17.7272C25.0892 17.3193 24.7494 16.9382 24.0829 16.6848C23.7294 16.5485 23.2939 16.4766 22.8722 16.4766H21.1585C20.5874 16.4766 20.3155 16.3044 20.2476 15.9237C20.2342 15.8783 20.2342 15.8421 20.2342 15.7967V15.1529C20.2342 15.1168 20.2342 15.0803 20.2476 15.0352C20.3155 14.745 20.4652 14.6634 20.9685 14.618L21.1045 14.609H25.1435V13.6665H21.1726C20.6015 13.6665 20.3024 13.7026 20.0304 13.7842C19.1874 14.0472 18.8197 14.4641 18.8197 15.1894V16.0142C18.8197 16.649 19.5409 17.1929 20.7509 17.32C20.8873 17.3286 21.0229 17.3382 21.1589 17.3382H22.6278C22.6822 17.3382 22.7366 17.3382 22.7775 17.3468C23.2264 17.383 23.4165 17.4649 23.5528 17.6277C23.6344 17.7093 23.6612 17.7912 23.6612 17.8814V18.7066C23.6612 18.8061 23.5934 18.9331 23.4574 19.0419C23.3352 19.1507 23.1311 19.2233 22.8591 19.2416L22.7094 19.2505H18.8063V20.1931ZM33.9122 18.5524C33.9122 19.5221 34.6331 20.066 36.0879 20.1752C36.2239 20.1841 36.3598 20.1931 36.4958 20.1931H40.1813V19.2505H36.469C35.6393 19.2505 35.3268 19.0419 35.3268 18.5431V13.6658H33.9126L33.9122 18.5524ZM25.9918 18.6013V15.2397C25.9918 14.3859 26.5915 13.8678 27.777 13.7043C27.8996 13.6861 28.0363 13.6771 28.1585 13.6771H30.8433C30.9796 13.6771 31.1021 13.6861 31.2381 13.7043C32.4237 13.8678 33.0237 14.3856 33.0237 15.2397V18.6013C33.0237 19.2946 32.769 19.665 32.182 19.9066L33.5756 21.1642H31.9332L30.8061 20.1466L29.6714 20.2185H28.1585C27.8996 20.2185 27.6273 20.1824 27.3275 20.1005C26.4279 19.8554 25.9918 19.3827 25.9918 18.6013ZM27.5182 18.5197C27.5182 18.5651 27.5316 18.6109 27.5454 18.6653C27.627 19.056 27.9953 19.2739 28.5537 19.2739H29.8384L28.6583 18.2085H30.3007L31.3297 19.1379C31.5197 19.0364 31.6443 18.8822 31.688 18.6835C31.7015 18.6381 31.7015 18.5927 31.7015 18.5472V15.3223C31.7015 15.2861 31.7015 15.2404 31.688 15.1949C31.6061 14.8314 31.2381 14.6228 30.6932 14.6228H28.5533C27.9268 14.6228 27.5178 14.8954 27.5178 15.3223L27.5182 18.5197Z" fill="#E48E00"/>
<path d="M41.4255 12.1013C40.5562 12.0775 39.8922 12.1584 39.3242 12.3977C39.1627 12.4658 38.9056 12.4676 38.8794 12.6696C38.9679 12.7629 38.9816 12.9017 39.0522 13.0159C39.1878 13.2352 39.4168 13.5292 39.6209 13.6831C39.8436 13.8514 40.0736 14.0318 40.3132 14.1778C40.7383 14.4373 41.2134 14.5854 41.6234 14.8449C41.8647 14.9985 42.1043 15.1913 42.3401 15.3644C42.4568 15.4494 42.5346 15.5827 42.6864 15.636V15.6116C42.6069 15.5104 42.5863 15.3713 42.5133 15.2653L42.1917 14.9437C41.8774 14.5265 41.4788 14.1606 41.0544 13.8563C40.7163 13.6136 39.9596 13.2855 39.8185 12.892L39.7937 12.8676C40.0333 12.8404 40.3142 12.7536 40.5352 12.6944C40.907 12.5946 41.2392 12.6204 41.6231 12.5213L42.1422 12.3725V12.2741C41.9484 12.0751 41.8096 11.8114 41.5983 11.6314C41.0451 11.1601 40.4406 10.6892 39.8185 10.296C39.4736 10.0785 39.047 9.93699 38.6811 9.75248C38.5586 9.69017 38.3424 9.65815 38.2608 9.55453C38.0683 9.30977 37.964 8.9996 37.8157 8.71422C37.5058 8.11695 37.2008 7.46426 36.9258 6.83532C36.7385 6.40673 36.616 5.98399 36.3822 5.59946C35.2596 3.75395 34.0513 2.63996 32.1796 1.54525C31.7813 1.3122 31.3018 1.22063 30.7954 1.10048L29.9795 1.05091C29.814 0.98172 29.6411 0.778614 29.4852 0.680159C28.8649 0.288404 27.2744 -0.56361 26.8152 0.556917C26.5254 1.264 27.249 1.95388 27.5075 2.31224C27.6889 2.56354 27.9216 2.84513 28.0514 3.12776C28.1368 3.31366 28.1512 3.49989 28.2246 3.69646C28.4039 4.18047 28.5606 4.70752 28.7929 5.1547C28.9103 5.38121 29.0401 5.61978 29.1885 5.82219C29.2793 5.94612 29.4356 6.0012 29.4601 6.19295C29.3076 6.40638 29.2986 6.73824 29.2129 7.00847C28.8267 8.22677 28.9723 9.74111 29.5344 10.6427C29.7069 10.9198 30.1131 11.5133 30.6715 11.2854C31.16 11.0864 31.0512 10.4699 31.191 9.92563C31.2226 9.80273 31.203 9.71185 31.265 9.62923V9.65402L31.7101 10.5439C32.0395 11.0744 32.6237 11.6283 33.1191 12.0025C33.3759 12.1963 33.5783 12.5319 33.9102 12.6452V12.6201H33.8857C33.821 12.5199 33.7208 12.4786 33.6382 12.3977C33.4447 12.208 33.2296 11.9725 33.0699 11.755C32.6192 11.1436 32.2213 10.474 31.8584 9.77726C31.6853 9.44472 31.5349 9.07775 31.3889 8.73901C31.3324 8.60854 31.3331 8.41094 31.2161 8.34381C31.0557 8.59167 30.8205 8.79237 30.6966 9.08532C30.499 9.5535 30.4735 10.1246 30.4002 10.7167L30.3506 10.7412C30.0061 10.6582 29.8852 10.3036 29.7572 9.99964C29.4336 9.23094 29.3733 7.99268 29.6584 7.10762C29.732 6.87835 30.0649 6.15715 29.93 5.94543C29.8656 5.73441 29.6532 5.61255 29.5348 5.45075C29.3878 5.25143 29.2408 4.98911 29.1392 4.75847C28.8742 4.15913 28.7506 3.48613 28.4721 2.8799C28.3385 2.59005 28.1134 2.29709 27.9282 2.03959C27.7233 1.75387 27.4937 1.54388 27.3347 1.19894C27.2782 1.07639 27.2015 0.879822 27.2851 0.753827C27.3116 0.668798 27.3498 0.63334 27.4338 0.605456C27.577 0.494952 27.9764 0.642291 28.1258 0.704256C28.5223 0.869151 28.8532 1.02578 29.1891 1.24817C29.3503 1.35523 29.5131 1.56178 29.7083 1.61892H29.9307C30.2787 1.69879 30.6687 1.64336 30.9937 1.74216C31.5686 1.91704 32.0836 2.18865 32.5511 2.48402C33.9759 3.38388 35.1405 4.66449 35.9378 6.19226C36.0659 6.4384 36.1216 6.67283 36.2342 6.93377C36.4621 7.45978 36.7492 8.00128 36.9757 8.51593C37.2019 9.02921 37.4225 9.5473 37.7423 9.97451C37.9103 10.199 38.5596 10.3195 38.8546 10.4441C39.0615 10.5315 39.4002 10.6227 39.5961 10.7405C39.9703 10.9663 40.3332 11.2352 40.6839 11.4823C40.8592 11.6069 41.3986 11.8779 41.4255 12.1013ZM30.3754 2.68299C30.1944 2.67955 30.0659 2.70296 29.9303 2.73257V2.75701H29.9551C30.0415 2.93498 30.194 3.04927 30.3011 3.20212L30.5486 3.72125L30.573 3.6968C30.7262 3.58905 30.7961 3.41659 30.7954 3.15289C30.7338 3.08817 30.7248 3.00728 30.6718 2.93051C30.6016 2.82723 30.4646 2.7694 30.3754 2.68299Z" fill="#00618A"/>
</svg>
