<svg width="41" height="47" viewBox="0 0 41 47" fill="none" xmlns="http://www.w3.org/2000/svg">
<path d="M20.4744 46.1416C19.8385 46.1416 19.2451 45.972 18.694 45.6753L13.0561 42.3265C12.2083 41.8602 12.6322 41.6906 12.8866 41.6058C14.0311 41.2243 14.2431 41.1395 15.43 40.4613C15.5571 40.3765 15.7267 40.4189 15.8539 40.5037L20.1777 43.0895C20.3472 43.1743 20.5592 43.1743 20.6863 43.0895L37.6 33.2974C37.7695 33.2126 37.8543 33.043 37.8543 32.8311V13.2893C37.8543 13.0773 37.7695 12.9078 37.6 12.823L20.6863 3.07328C20.5168 2.9885 20.3048 2.9885 20.1777 3.07328L3.26403 12.823C3.09447 12.9078 3.00969 13.1197 3.00969 13.2893V32.8311C3.00969 33.0006 3.09447 33.2126 3.26403 33.2974L7.88455 35.9679C10.3856 37.2397 11.954 35.756 11.954 34.2723V14.9849C11.954 14.7305 12.1659 14.4762 12.4627 14.4762H14.6246C14.8789 14.4762 15.1332 14.6881 15.1332 14.9849V34.2723C15.1332 37.6212 13.3105 39.5711 10.1312 39.5711C9.15625 39.5711 8.39323 39.5711 6.23134 38.5114L1.78038 35.9679C0.678241 35.3321 0 34.1452 0 32.8735V13.3317C0 12.06 0.678241 10.873 1.78038 10.2372L18.694 0.445095C19.7538 -0.148365 21.195 -0.148365 22.2548 0.445095L39.1684 10.2372C40.2705 10.873 40.9488 12.06 40.9488 13.3317V32.8735C40.9488 34.1452 40.2705 35.3321 39.1684 35.9679L22.2548 45.76C21.7037 46.0144 21.0679 46.1416 20.4744 46.1416ZM25.6884 32.7039C18.2701 32.7039 16.7441 29.3127 16.7441 26.4302C16.7441 26.1758 16.956 25.9215 17.2527 25.9215H19.457C19.7114 25.9215 19.9233 26.0911 19.9233 26.3454C20.2624 28.5921 21.2374 29.6942 25.7308 29.6942C29.2915 29.6942 30.8176 28.8888 30.8176 26.9813C30.8176 25.8791 30.3937 25.0737 24.8406 24.5226C20.22 24.0563 17.3375 23.039 17.3375 19.3511C17.3375 15.9175 20.2201 13.8827 25.0525 13.8827C30.4784 13.8827 33.149 15.7479 33.4881 19.8173C33.4881 19.9445 33.4457 20.0717 33.361 20.1989C33.2762 20.2836 33.149 20.3684 33.0218 20.3684H30.8176C30.6056 20.3684 30.3937 20.1989 30.3513 19.9869C29.8426 17.6555 28.5285 16.8924 25.0525 16.8924C21.1526 16.8924 20.6863 18.2489 20.6863 19.2663C20.6863 20.4956 21.2374 20.8771 26.4938 21.5553C31.7078 22.2336 34.1664 23.2085 34.1664 26.8541C34.124 30.5844 31.0719 32.7039 25.6884 32.7039Z" fill="#539E43"/>
</svg>
