<svg width="43" height="38" viewBox="0 0 43 38" fill="none" xmlns="http://www.w3.org/2000/svg">
<path d="M35.0968 12.3096C34.654 12.1572 34.1951 12.013 33.7227 11.8766C33.8003 11.5597 33.8716 11.2469 33.935 10.9394C34.9752 5.89021 34.2951 1.82255 31.9727 0.483306C29.7458 -0.800854 26.104 0.538089 22.4259 3.73903C22.0722 4.04683 21.7175 4.37271 21.363 4.71425C21.1267 4.48828 20.8909 4.26991 20.6557 4.06104C16.8009 0.638384 12.9371 -0.803969 10.617 0.539152C8.39228 1.82703 7.73345 5.65102 8.66977 10.4362C8.76018 10.8984 8.86587 11.3704 8.98539 11.8503C8.43856 12.0055 7.91064 12.171 7.40551 12.347C2.88622 13.9226 0 16.392 0 18.9534C0 21.5989 3.09836 24.2523 7.80556 25.8612C8.17703 25.9882 8.56248 26.1082 8.95971 26.2222C8.83077 26.7412 8.71862 27.2498 8.62448 27.7459C7.7317 32.448 8.42891 36.1817 10.6477 37.4614C12.9395 38.783 16.7859 37.4246 20.5312 34.1507C20.8272 33.8919 21.1243 33.6174 21.4219 33.3298C21.8077 33.7013 22.1928 34.0528 22.5759 34.3826C26.2037 37.5044 29.7868 38.765 32.0035 37.4817C34.2931 36.1563 35.0372 32.1455 34.0711 27.2656C33.9974 26.893 33.9115 26.5122 33.8151 26.1247C34.0852 26.0448 34.3504 25.9624 34.6089 25.8767C39.5025 24.2553 42.6864 21.6342 42.6864 18.9534C42.6864 16.3828 39.7071 13.8967 35.0968 12.3096ZM34.0354 24.1458C33.802 24.223 33.5625 24.2977 33.3185 24.3701C32.7782 22.6599 32.0491 20.8413 31.1569 18.9623C32.0083 17.1281 32.7093 15.3328 33.2344 13.6336C33.671 13.76 34.0948 13.8932 34.5032 14.0339C38.4534 15.3937 40.8629 17.4043 40.8629 18.9534C40.8629 20.6036 38.2607 22.7457 34.0354 24.1458ZM32.2822 27.6198C32.7094 29.7776 32.7704 31.7285 32.4875 33.2536C32.2332 34.624 31.722 35.5376 31.0898 35.9036C29.7445 36.6822 26.8677 35.6701 23.7652 33.0002C23.4095 32.6942 23.0513 32.3674 22.6919 32.0215C23.8947 30.7061 25.0968 29.1768 26.27 27.4784C28.3336 27.2953 30.2832 26.9959 32.0512 26.5872C32.1383 26.9385 32.2156 27.283 32.2822 27.6198ZM14.5528 35.769C13.2384 36.2332 12.1916 36.2465 11.5589 35.8816C10.2124 35.105 9.65266 32.1072 10.4162 28.086C10.5037 27.6255 10.6077 27.1524 10.7277 26.6689C12.4764 27.0555 14.4117 27.3338 16.4802 27.5015C17.6613 29.1634 18.8981 30.691 20.1445 32.0286C19.8722 32.2915 19.601 32.5418 19.3312 32.7776C17.6751 34.2253 16.0154 35.2524 14.5528 35.769ZM8.39532 24.1357C6.31389 23.4243 4.59497 22.4996 3.41673 21.4907C2.358 20.584 1.82347 19.6838 1.82347 18.9534C1.82347 17.3991 4.14083 15.4165 8.00577 14.069C8.47472 13.9055 8.96564 13.7514 9.47509 13.6066C10.0092 15.3442 10.7099 17.1608 11.5555 18.9978C10.699 20.8621 9.98835 22.7077 9.44895 24.4656C9.08576 24.3612 8.73389 24.2513 8.39532 24.1357ZM10.4594 10.086C9.65714 5.98617 10.1899 2.89343 11.5306 2.11736C12.9587 1.29061 16.1165 2.46938 19.4448 5.42467C19.6576 5.61356 19.8712 5.81126 20.0853 6.01581C18.8451 7.34753 17.6196 8.86366 16.449 10.5158C14.4414 10.7019 12.5197 11.0008 10.7528 11.4011C10.6417 10.9542 10.5433 10.5152 10.4594 10.086ZM28.8723 14.6326C28.45 13.903 28.0163 13.1907 27.5743 12.4978C28.9363 12.67 30.2412 12.8986 31.4666 13.1783C31.0987 14.3573 30.6401 15.5901 30.1004 16.8539C29.7132 16.1188 29.3036 15.3776 28.8723 14.6326ZM21.3636 7.31904C22.2047 8.23028 23.047 9.24767 23.8755 10.3515C23.0406 10.3121 22.1954 10.2916 21.3432 10.2916C20.4991 10.2916 19.6601 10.3116 18.8304 10.3504C19.6597 9.25679 20.5093 8.24077 21.3636 7.31904ZM13.8067 14.6452C13.3848 15.3769 12.9828 16.114 12.6017 16.8526C12.0707 15.5932 11.6164 14.3548 11.2453 13.159C12.4632 12.8864 13.762 12.6636 15.1153 12.4947C14.667 13.1939 14.2298 13.9116 13.8067 14.6452ZM15.1542 25.5423C13.756 25.3863 12.4378 25.1749 11.2202 24.9099C11.5972 23.6928 12.0615 22.4279 12.6038 21.1414C12.9859 21.8794 13.3894 22.6169 13.8139 23.3501C14.2463 24.0971 14.6944 24.8288 15.1542 25.5423ZM21.414 30.7164C20.5497 29.7839 19.6877 28.7524 18.8457 27.6428C19.663 27.6749 20.4963 27.6913 21.3432 27.6913C22.2133 27.6913 23.0734 27.6717 23.92 27.634C23.0887 28.7635 22.2494 29.7967 21.414 30.7164ZM30.1178 21.0758C30.6883 22.3762 31.1693 23.6345 31.5511 24.8309C30.3135 25.1132 28.9772 25.3407 27.5693 25.5096C28.0124 24.8074 28.4498 24.0829 28.8796 23.3376C29.3145 22.5835 29.7274 21.8283 30.1178 21.0758ZM27.3001 22.4265C26.6328 23.5835 25.9478 24.688 25.2523 25.7305C23.9856 25.8211 22.677 25.8677 21.3432 25.8677C20.0148 25.8677 18.7227 25.8265 17.4784 25.7457C16.7549 24.6895 16.055 23.5818 15.392 22.4365C14.7307 21.2943 14.1223 20.1425 13.5708 18.9972C14.1221 17.8492 14.7291 16.6961 15.3866 15.556L15.3864 15.5562C16.0456 14.4131 16.7394 13.3108 17.4562 12.2612C18.7257 12.1652 20.0275 12.1151 21.3431 12.1151C22.6647 12.1151 23.9682 12.1656 25.2373 12.2624C25.9432 13.3043 26.6323 14.4031 27.2941 15.5464C27.9634 16.7025 28.5782 17.8479 29.1343 18.9713C28.5799 20.114 27.9664 21.2709 27.3001 22.4265ZM31.0618 2.06311C32.4913 2.88743 33.0471 6.21191 32.149 10.5713C32.0918 10.8495 32.0272 11.1328 31.9572 11.42C30.1862 11.0113 28.2631 10.7073 26.2497 10.5184C25.0768 8.84808 23.8613 7.3296 22.6413 6.01497C22.9693 5.69942 23.2968 5.39853 23.623 5.11459C26.7744 2.37205 29.7198 1.28924 31.0618 2.06311ZM21.3432 15.1417C23.4484 15.1417 25.155 16.8482 25.155 18.9534C25.155 21.0586 23.4484 22.7652 21.3432 22.7652C19.2381 22.7652 17.5315 21.0586 17.5315 18.9534C17.5315 16.8482 19.2381 15.1417 21.3432 15.1417Z" fill="#00D8FF"/>
</svg>
