<svg width="41" height="31" viewBox="0 0 41 31" fill="none" xmlns="http://www.w3.org/2000/svg">
<path d="M35.2561 17.6513C33.9703 17.6529 32.7017 17.947 31.5462 18.5111C31.1844 17.9107 30.9051 17.2645 30.7156 16.5896C30.6068 16.0606 30.5816 15.5179 30.641 14.9811C30.766 14.3904 30.9282 13.8082 31.1265 13.238C31.1192 13.1634 31.0373 12.811 30.2141 12.7993C29.3908 12.7876 28.6816 12.9558 28.6055 13.1737C28.4625 13.5716 28.3477 13.9792 28.2619 14.3932C27.5805 16.0742 26.7418 17.687 25.7569 19.2101C25.2052 18.3055 24.9782 17.2399 25.1135 16.1889C25.2385 15.5983 25.4007 15.0161 25.599 14.4459C25.5917 14.3713 25.5098 14.0189 24.6865 14.0072C23.8633 13.9955 23.154 14.1636 23.078 14.3815C23.002 14.5994 22.9054 15.1127 22.7344 15.6011C22.5633 16.0895 20.5657 20.5525 20.0422 21.7033C19.7732 22.2882 19.5407 22.7649 19.3769 23.0866C19.3691 23.1075 19.3593 23.1276 19.3476 23.1466C19.2014 23.423 19.1239 23.5736 19.1239 23.5736V23.5809C19.0113 23.7827 18.8914 23.9699 18.8315 23.9699C18.7269 23.5521 18.7319 23.1144 18.8461 22.6991C19.1385 21.1506 19.8551 18.7436 19.8478 18.6602C19.8478 18.6149 19.9823 18.1967 19.3842 17.9803C19.2455 17.9143 19.0897 17.8929 18.9384 17.9191C18.787 17.9453 18.6475 18.0177 18.539 18.1265C18.4863 18.1265 18.4498 18.2537 18.4498 18.2537C18.4498 18.2537 19.1005 15.547 17.2083 15.547C16.4714 15.6952 15.7716 15.9893 15.1501 16.4119C14.5286 16.8346 13.9978 17.3773 13.5891 18.0081C13.0802 18.2844 11.9966 18.8752 10.837 19.5113C10.3983 19.7584 9.93916 20.0056 9.51363 20.2425C9.48439 20.2132 9.45368 20.1752 9.42443 20.1459C7.1213 17.6922 2.88792 15.9608 3.07071 12.6779C3.13797 11.4818 3.54888 8.34074 11.1997 4.52558C17.4964 1.42257 22.5077 2.2824 23.3748 4.18925C24.6163 6.91207 20.69 11.9673 14.1842 12.6999C13.4645 12.8459 12.7212 12.8283 12.0091 12.6483C11.2971 12.4684 10.6347 12.1306 10.0708 11.6602C9.72713 11.2858 9.67449 11.2639 9.54727 11.3385C9.33816 11.4511 9.47269 11.7874 9.54727 11.9819C9.79545 12.431 10.1311 12.8259 10.5345 13.1431C10.9379 13.4603 11.4007 13.6935 11.8957 13.8288C14.4551 14.3819 17.1235 14.1174 19.5246 13.0728C23.4728 11.5476 26.5437 7.30689 25.6429 3.75495C24.7377 0.150359 18.7554 -1.0385 13.0934 0.976562C9.5469 2.16991 6.26999 4.0496 3.44945 6.50847C0.330345 9.42577 -0.162453 11.96 0.0393456 13.023C0.770499 16.7929 5.96315 19.2452 8.04109 21.0657C7.9358 21.1257 7.83929 21.1783 7.7574 21.2222C6.7177 21.7384 2.75485 23.8105 1.76194 26.001C0.640354 28.4869 1.94181 30.2636 2.80164 30.5035C4.09726 30.8136 5.45738 30.7114 6.69213 30.2113C7.92688 29.7111 8.97463 28.8378 9.68911 27.7134C10.2975 26.7807 10.6715 25.7149 10.7792 24.6065C10.8869 23.4982 10.7251 22.3803 10.3077 21.348C10.3006 21.3313 10.2907 21.3159 10.2784 21.3026L11.0929 20.8245C11.6237 20.5101 12.1472 20.2191 12.5962 19.9792C12.2918 20.8573 12.113 21.774 12.0654 22.7021C11.962 24.1245 12.3973 25.5339 13.2849 26.6503C13.42 26.7665 13.5768 26.8548 13.7462 26.9101C13.9156 26.9653 14.0944 26.9863 14.272 26.972C15.1494 26.972 15.5515 26.2408 15.9917 25.3722C16.5298 24.3106 17.0153 23.0764 17.0153 23.0764C17.0153 23.0764 16.4099 26.4119 18.055 26.4119C18.6531 26.4119 19.2584 25.634 19.529 25.2421V25.2494C19.529 25.2494 19.5436 25.2275 19.5743 25.1748L19.6708 25.0184V25.0037C19.9106 24.5855 20.4488 23.635 21.2486 22.0572C22.281 20.0231 23.2754 17.4802 23.2754 17.4802C23.3713 18.039 23.5037 18.591 23.6717 19.1326C23.9125 19.789 24.1974 20.4285 24.5242 21.0467C24.2844 21.3831 24.1352 21.5702 24.1352 21.5702L24.1426 21.5775C23.9481 21.832 23.739 22.1084 23.5064 22.3774C22.8147 23.138 22.1729 23.9424 21.585 24.7858C21.4976 24.9275 21.4676 25.0972 21.501 25.2602C21.5344 25.4232 21.6288 25.5674 21.7648 25.6632C22.0727 25.8234 22.4236 25.8813 22.7665 25.8285C23.2834 25.7993 23.7916 25.6831 24.2698 25.4848C24.7319 25.3222 25.1678 25.0931 25.5639 24.8049C25.9722 24.522 26.3009 24.1388 26.5183 23.6922C26.7358 23.2455 26.8346 22.7505 26.8054 22.2546C26.7594 21.6299 26.5999 21.0189 26.3346 20.4516C26.4091 20.3463 26.4808 20.2425 26.551 20.1372C27.3823 18.8962 28.1317 17.6023 28.7941 16.2635C28.8901 16.8224 29.0224 17.3744 29.1904 17.9159C29.3891 18.4832 29.6336 19.0334 29.9216 19.561C28.9652 20.2969 28.2118 21.2641 27.7325 22.3716C27.2617 23.733 27.6272 24.3457 28.3174 24.4875C28.6951 24.5136 29.0727 24.4362 29.4098 24.2638C29.9053 24.1009 30.3721 23.8611 30.7931 23.5531C31.237 23.2912 31.6088 22.9229 31.875 22.4816C32.1413 22.0402 32.2936 21.5396 32.3183 21.0248C32.2851 20.5109 32.1691 20.0057 31.9747 19.5289C33.2368 19.0358 34.6052 18.8786 35.9463 19.0726C39.5055 19.4908 40.2089 21.7121 40.0744 22.648C40.0113 22.9797 39.8779 23.2942 39.6832 23.5701C39.4885 23.846 39.2369 24.0771 38.9455 24.2477C38.6984 24.4042 38.6165 24.4568 38.6384 24.5694C38.6676 24.7347 38.7846 24.7259 38.9967 24.6966C39.5331 24.5299 40.0064 24.2045 40.3541 23.7633C40.7019 23.3221 40.9077 22.7859 40.9445 22.2253C41.0571 20.0319 38.963 17.6264 35.2605 17.6483L35.2561 17.6513ZM7.79396 26.9047C6.61242 28.1916 4.96732 28.677 4.25664 28.2661C3.49331 27.8274 3.79309 25.9264 5.2437 24.5636C6.10419 23.789 7.03425 23.0953 8.02208 22.4915C8.19463 22.3862 8.44907 22.237 8.75323 22.0528L8.83512 22.0075L9.01499 21.8949C9.27414 22.7632 9.29764 23.6848 9.08307 24.5652C8.8685 25.4456 8.42358 26.253 7.79396 26.9047ZM16.3938 21.0555C15.9829 22.0572 15.123 24.6235 14.5995 24.4802C14.1506 24.3603 13.8684 22.4154 14.5103 20.494C14.8345 19.569 15.3066 18.7028 15.9083 17.9291C16.5517 17.2111 17.2624 16.9713 17.4335 17.2637C17.2774 18.5723 16.927 19.8503 16.3938 21.0555ZM23.4904 24.451C23.3178 24.5402 23.154 24.5972 23.0795 24.5563C23.0268 24.527 23.154 24.41 23.154 24.41C23.154 24.41 24.0446 23.4522 24.3955 23.0194C24.5973 22.7649 24.8342 22.4666 25.0916 22.1288V22.2253C25.0916 23.3689 23.9846 24.1395 23.4918 24.4539L23.4904 24.451ZM28.9652 23.2022C28.838 23.113 28.86 22.8132 29.2869 21.8788C29.5838 21.2787 29.9986 20.7445 30.5065 20.3083C30.5844 20.5296 30.6249 20.7624 30.6264 20.997C30.6322 21.4964 30.4725 21.9837 30.1723 22.3829C29.872 22.7821 29.4481 23.0706 28.9667 23.2036L28.9652 23.2022Z" fill="#CD6799"/>
</svg>
